<svg width="64" height="64" viewBox="0 0 64 64" fill="none" xmlns="http://www.w3.org/2000/svg">
<path d="M33.7304 18.3037C33.7304 15.384 31.2982 13.0072 28.3072 13.0072C25.3179 13.0072 22.8859 15.384 22.8859 18.3037C22.8857 25.3118 33.7304 25.3084 33.7304 18.3037ZM28.3072 19.943C27.334 19.943 26.543 19.2073 26.543 18.3037C26.543 17.4 27.334 16.6643 28.3072 16.6643C29.2804 16.6643 30.0732 17.4 30.0732 18.3037C30.0732 19.2073 29.2804 19.943 28.3072 19.943Z" fill="#2DA884"/>
<path d="M2.7785 59.5518C2.7785 60.5625 3.59642 61.3804 4.60707 61.3804H59.3927C60.4034 61.3804 61.2213 60.5625 61.2213 59.5518C61.2213 58.5412 60.4034 57.7233 59.3927 57.7233H49.8551C49.8816 57.5987 49.9302 57.4826 49.9302 57.3501C49.9302 53.3215 46.7748 50.0447 42.8981 50.0447C41.8677 50.0447 40.875 50.2715 39.9641 50.7072C37.8962 49.1679 35.0802 48.7823 32.7374 49.6894C32.5464 49.4195 32.3326 49.1712 32.1084 48.9337C32.1593 48.7922 32.219 48.6537 32.2339 48.4985C32.2375 48.4842 32.2392 48.4681 32.241 48.452C32.4196 47.4699 32.5802 46.4878 32.7071 45.5218C32.7338 45.4217 32.7535 45.3217 32.7643 45.22C32.7733 45.1718 32.7947 45.0701 32.8 45.0469C32.8108 44.988 32.8179 44.9147 32.8232 44.8415C32.8344 44.7638 32.842 44.6854 32.8528 44.6073C34.0718 44.9973 35.3174 45.1879 36.55 45.1879C41.2643 45.186 45.7715 42.4558 47.7785 37.8915C47.9749 37.4468 47.9857 36.9432 47.8089 36.4915C47.6321 36.0399 47.2839 35.6755 46.8392 35.4809C42.1791 33.4408 37.028 34.4739 33.5731 37.7399C33.7022 35.8444 33.77 33.9434 33.7838 32.0412C34.0328 31.7107 34.2177 31.3706 34.3444 31.0433C38.6258 33.1092 45.0397 27.8 43.2212 23.7576C47.759 22.2921 47.7577 14.4781 43.2175 13.0184C45.0395 9.00739 38.6752 3.63212 34.3444 5.72547C32.7349 1.58595 23.8769 1.58467 22.2623 5.72364C17.9461 3.6398 11.5761 9.01086 13.3965 13.018C8.85649 14.4777 8.85357 22.2958 13.3946 23.7572C11.5138 27.9384 18.0983 33.0511 22.2625 31.0448C22.8089 32.4519 24.3035 34.1073 28.3072 34.1073C28.9781 34.1073 29.555 34.0467 30.0924 33.9626C29.9917 37.4451 29.696 40.9443 29.1911 44.4019C29.1875 44.4233 29.184 44.4484 29.1822 44.4769C29.1679 44.5413 29.1518 44.6216 29.1394 44.7144C29.118 44.7912 29.1037 44.868 29.0929 44.9467C29.0077 45.6168 28.8867 46.3007 28.7711 46.9824C28.2664 46.8605 27.7438 46.7932 27.2091 46.7932C24.0216 46.7932 21.3341 49.0593 20.5663 52.12C17.7735 52.3807 15.5145 54.7272 15.3216 57.6735C15.3205 57.6909 15.3289 57.7061 15.3284 57.7235H4.60744C3.59642 57.7233 2.7785 58.5412 2.7785 59.5518ZM43.3571 38.2197C41.4321 40.6912 38.2641 41.9268 35.166 41.4161C37.1001 38.8983 40.25 37.6858 43.3571 38.2197ZM25.1392 24.8662C22.7697 23.6897 22.0063 27.8912 20.0766 27.8912C18.7204 27.8912 16.7087 25.959 16.7087 25.3323C16.7087 24.8587 19.1133 23.586 19.5355 23.3681C21.4149 22.3973 20.399 19.5164 18.3195 19.9538C14.8577 20.6815 13.6784 20.7688 13.6784 18.3841C13.6784 16.0498 14.7372 16.084 18.3124 16.8163C19.191 16.995 20.0964 16.4985 20.4017 15.6394C20.7089 14.7822 20.3374 13.8288 19.5302 13.4055C19.1248 13.1932 16.7087 11.8987 16.7087 11.4394C16.7087 10.7752 19.4468 7.91097 21.0748 9.28222C22.5569 10.5375 23.2329 12.8503 25.1392 11.9037C27.07 10.949 25.6143 9.0926 25.6143 7.34832C25.6143 5.96227 30.991 5.95678 30.991 7.34832C30.991 9.05822 29.5623 10.968 31.4803 11.9055C33.8726 13.0855 34.6013 8.87683 36.5339 8.87683C37.8898 8.87683 39.9054 10.8082 39.9054 11.4394C39.9054 11.904 37.4928 13.1888 37.0805 13.4036C35.2128 14.3788 36.2238 17.2336 38.2948 16.8161C41.741 16.1094 42.9359 15.9978 42.9359 18.3839C42.9359 23.0477 37.4067 17.7979 36.2055 21.125C35.2669 23.7398 39.9054 24.1511 39.9054 25.3321C39.9054 25.9637 37.894 27.891 36.5339 27.891C35.5193 27.891 34.4132 26.3174 33.7732 25.4375C32.5807 23.7941 29.9845 25.0518 30.5338 27.0071C30.8714 28.2054 30.991 29.0571 30.991 29.4214C30.991 30.3499 29.1141 30.4499 28.307 30.4499C22.445 30.4501 28.3476 26.4487 25.1392 24.8662ZM21.0858 55.7519C21.2769 55.7519 21.45 55.7769 21.5912 55.825C22.1893 56.0304 22.8608 55.943 23.3501 55.5392C23.8394 55.1355 24.0894 54.541 24.0018 53.9125C24.0018 52.0037 25.4411 50.4499 27.209 50.4499C28.5714 50.4499 29.7858 51.3785 30.2303 52.7624C30.4124 53.3285 30.859 53.7695 31.4267 53.948C31.9982 54.1267 32.6142 54.014 33.084 53.6516C34.6858 52.423 37.0143 52.6676 38.4 54.2051C39.0446 54.9248 40.1428 55.0122 40.9 54.4104C41.4804 53.9462 42.1714 53.7015 42.8983 53.7015C44.759 53.7015 46.2733 55.3372 46.2733 57.3497C46.2733 57.4823 46.3219 57.5984 46.3488 57.7229H19.0179C19.1795 56.6082 20.0402 55.7519 21.0858 55.7519Z" fill="#2DA884"/>
</svg>
