<svg width="63" height="63" viewBox="0 0 63 63" fill="none" xmlns="http://www.w3.org/2000/svg">
<path d="M29.1765 41.2235C29.1765 39.7176 27.9529 38.4 26.3529 38.4H17.7882C18.0706 37.7412 18.2588 36.8 18.4471 35.6706C19.3882 35.8588 20.3294 35.7647 21.3647 35.3882C22.4941 34.9176 23.4353 34.1647 24.2824 33.3176C25.7882 33.6941 31.8118 32.9412 32.1882 28.1412C32.2824 26.7294 34.5412 25.9765 34.5412 25.9765C34.9176 25.8824 35.1059 25.5059 35.2 25.2235C35.2941 24.9412 35.0118 24.4706 34.7294 24.2824C33.0353 23.2471 31.2471 22.7765 29.5529 22.7765C25.3176 22.7765 22.4941 25.9765 22.4 30.9647C22.4 31.4353 22.4941 31.9059 22.7765 32.2824C21.6471 33.4118 20.1412 34.2588 18.5412 33.8824C18.5412 32.2824 18.3529 30.4 17.7882 28.3294C17.3176 26.8235 17.1294 25.2235 17.0353 23.7176C17.7882 23.6235 18.5412 23.3412 19.0118 22.7765C26.2588 15.1529 22.9647 6.49412 13.3647 3.95294C12.9882 3.85882 12.6118 3.95294 12.4235 4.23529C12.2353 4.51765 12.1412 4.89412 12.3294 5.27059C12.3294 5.27059 14.0235 8.75294 12.4235 10.5412C9.50588 13.8353 10.1647 18.1647 14.2118 22.7765C14.4941 23.0588 14.7765 23.2471 15.0588 23.4353C15.1529 25.2235 15.4353 27.1059 15.9059 28.8941C16.3765 30.5882 16.5647 32.0941 16.5647 33.4118C14.9647 33.7882 13.5529 32.9412 12.4235 31.8118C12.7059 31.4353 12.8 30.9647 12.8 30.4941C12.7059 25.5059 9.88235 22.3059 5.64706 22.3059C3.95294 22.3059 2.16471 22.8706 0.470588 23.8118C0.188235 24 0 24.3765 0 24.7529C0 25.1294 0.282353 25.4118 0.658824 25.5059C1.22353 25.6941 3.01176 26.5412 3.01176 27.6706C3.2 30.7765 5.83529 32.7529 10.0706 32.9412C10.0706 32.9412 10.1647 32.9412 10.2588 32.9412C10.4471 32.9412 10.7294 32.9412 10.9176 32.8471C12.4235 34.4471 14.3059 35.5765 16.4706 35.2941C16.2824 36.8 15.9059 37.9294 15.6235 38.4941H6.21176C4.70588 38.4941 3.38824 39.7176 3.38824 41.3176C3.38824 42.6353 4.32941 43.8588 5.64706 44.0471L8.28235 61.4588C8.37647 61.9294 8.75294 62.3059 9.22353 62.3059C9.41177 62.3059 23.9059 62.3059 23.3412 62.3059C23.8118 62.3059 24.1882 61.9294 24.2824 61.4588L26.9176 44.0471C28.2353 43.7647 29.1765 42.6353 29.1765 41.2235ZM29.6471 24.6588C30.4941 24.6588 31.3412 24.8471 32.1882 25.1294C31.3412 25.7882 30.4 26.7294 30.3059 28.0471C30.1176 30.4 27.9529 31.2471 25.7882 31.5294C26.8235 30.0235 27.4824 28.6118 27.4824 28.5177C27.6706 28.0471 27.4824 27.4824 27.0118 27.2941C26.5412 27.1059 25.9765 27.2941 25.7882 27.7647C25.7882 27.7647 25.2235 28.9882 24.3765 30.4C24.6588 26.8235 26.6353 24.6588 29.6471 24.6588ZM5.08235 27.4824C4.98823 26.1647 4.04706 25.1294 3.2 24.5647C4.04706 24.2824 4.98824 24.0941 5.74118 24.0941C8.75294 24.0941 10.7294 26.2588 11.0118 29.8353C10.0706 28.5176 9.6 27.2941 9.6 27.2941C9.41176 26.8235 8.84706 26.6353 8.37647 26.8235C7.90588 27.0118 7.71765 27.5765 7.90588 28.0471C8 28.1412 8.5647 29.5529 9.6 31.0588C7.43529 30.7765 5.27059 29.9294 5.08235 27.4824ZM13.9294 11.6706C15.3412 10.0706 15.1529 7.81177 14.7765 6.30588C21.5529 8.94118 23.5294 15.4353 17.7882 21.4588C17.6 21.6471 17.3176 21.7412 17.1294 21.8353C17.1294 17.7882 17.9765 14.5882 17.9765 14.5882C18.2588 13.3647 16.4706 12.8941 16.1882 14.1176C16.0941 14.3059 15.4353 17.1294 15.3412 20.8C13.0824 18.1647 11.3882 14.6824 13.9294 11.6706ZM5.27059 41.2235C5.27059 40.7529 5.64706 40.2824 6.21176 40.2824H26.3529C26.8235 40.2824 27.2941 40.6588 27.2941 41.2235C27.2941 41.7882 26.9176 42.1647 26.3529 42.1647C17.3176 42.1647 15.2471 42.1647 6.21176 42.1647C5.74118 42.1647 5.27059 41.7882 5.27059 41.2235ZM7.62353 44.0471H12.2353L12.9882 60.3294H10.0706L7.62353 44.0471ZM14.8706 60.3294L14.0235 44.0471H18.4471L17.7882 60.3294H14.8706ZM22.5882 60.3294H19.6706L20.5176 44.0471H25.1294L22.5882 60.3294ZM58.9176 47.8118C59.0118 46.7765 58.9176 46.8706 58.9176 39.8118C58.9176 39.2471 58.5412 38.8706 57.9765 38.8706C55.7177 38.8706 53.9294 38.4941 52.4235 37.7412C52.6118 36.7059 52.8 35.6706 52.8 34.7294C52.8 34.2588 52.4235 33.7882 51.7647 33.7882V9.97647L54.4941 7.34118C55.8118 6.11765 55.6235 4.8 55.6235 3.48235C55.6235 1.6 54.0235 0 51.9529 0H46.3059C44.3294 0 42.6353 1.50588 42.6353 3.48235C42.6353 4.70588 42.4471 6.02353 43.7647 7.24706L46.4941 9.97647V33.6941C45.7412 33.6941 45.4588 34.1647 45.4588 34.6353C45.4588 35.4824 45.5529 36.4235 45.8353 37.4588C44.3294 38.2118 42.5412 38.5882 40.2824 38.7765C39.8118 38.7765 39.4353 39.2471 39.4353 39.7176V46.6824C39.4353 48 39.6235 49.3176 40 50.6353C37.6471 51.8588 37.4588 53.0824 34.3529 53.4588C30.9647 53.9294 30.3059 53.7412 28.9882 55.8118L28.8941 55.9059C28.1412 57.1294 27.2 58.1647 26.1647 59.0118C25.7882 59.2941 25.6941 59.7647 25.9765 60.2353C26.1647 60.6118 26.6353 60.8 27.1059 60.6118C28.4235 60.1412 30.4 61.6471 32.4706 61.3647C33.9765 61.1765 34.9176 60.2353 35.9529 60.0471C36.3294 59.9529 36.6118 59.9529 37.3647 59.9529C38.4 59.9529 39.3412 59.7647 40 59.8588C40.9412 60.1412 41.8824 61.2706 43.2941 61.7412C46.5882 62.8706 49.5059 59.2941 51.1059 59.5765C51.6706 59.6706 53.9294 61.5529 57.9765 61.7412C59.8588 61.8353 60.8941 61.1765 61.0823 59.2941C61.0823 58.1647 64.9412 51.8588 58.9176 47.8118ZM50.9176 35.6706C50.7294 37.6471 49.7882 40.6588 49.1294 42.6353C48.5647 40.7529 47.5294 37.5529 47.3412 35.6706C48.1882 35.6706 50.9176 35.6706 50.9176 35.6706ZM48.0941 9.03529L45.0824 6.02353C44.4235 5.36471 44.5176 4.61176 44.5176 3.57647C44.5176 2.63529 45.3647 1.97647 46.3059 1.97647H52.0471C52.9882 1.97647 53.8353 2.63529 53.8353 3.57647C53.8353 4.61176 54.0235 5.36471 53.2706 6.02353L50.2588 8.94118C50.0706 9.12941 49.9765 9.31765 49.9765 9.6V33.8824H48.4706V9.69412C48.3765 9.41177 48.2824 9.22353 48.0941 9.03529ZM41.2235 46.7765V40.7529C43.2 40.5647 44.8 40.1882 46.2118 39.5294C46.7765 41.7882 47.9059 45.1765 48.1882 46.2118C48.4706 47.0588 49.6941 47.0588 49.9765 46.2118C50.3529 45.0824 51.3882 41.7882 51.9529 39.7176C53.3647 40.3765 55.0588 40.7529 57.0353 40.8471V46.6824C56.3765 46.6824 55.8118 47.1529 55.5294 47.3412C54.3059 48.5647 54.7765 47.6235 53.1765 47.2471C51.6706 46.8706 49.6941 48.0941 48.4706 48.9412C44.6118 51.4824 44.8 49.9765 42.1647 50.0706C42.0706 50.0706 41.9765 50.0706 41.7882 50.0706C41.4118 49.0353 41.2235 47.9059 41.2235 46.7765ZM59.2941 58.3529C58.7294 59.6706 59.5765 60.3294 57.8824 60.2353C51.4824 59.8588 52.9882 56.1882 47.5294 59.2941C44.5176 60.9882 43.8588 60.5176 42.4471 59.4824C40 57.6941 39.4353 58.3529 37.2706 58.3529C35.6706 58.3529 35.3882 58.3529 33.6 59.2C31.4353 60.2353 31.5294 59.7647 28.8941 59.1059C31.0588 56.5647 30.4 56.1882 32.0941 55.9059C36.2353 55.3412 36.5176 55.4353 39.1529 53.5529C44.2353 49.8824 43.1059 54.7765 49.3176 50.6353C53.8353 47.6235 52.3294 50.2588 54.8706 49.9765C55.9059 49.8824 56.4706 49.0353 56.8471 48.7529C57.6 49.7882 62.5882 50.8235 59.2941 58.3529Z" fill="white"/>
</svg>
